<svg xmlns="http://www.w3.org/2000/svg" width="95.867" height="74.113" viewBox="0 0 95.867 74.113"><defs><style>.a{fill:#fff;}.b{fill:#e61b72;}.c{fill:#f2bbaf;}</style></defs><g transform="translate(0.026 0.026)"><path class="a" d="M134.032,82.3H70.116A7.529,7.529,0,0,0,62.7,89.716v36.778a7.321,7.321,0,0,0,7.306,7.306h64.026a7.3,7.3,0,0,0,7.306-7.306V89.606A7.3,7.3,0,0,0,134.032,82.3Zm2.005,44.195a2.342,2.342,0,0,1-2.06,2.307H70.116a2.321,2.321,0,0,1-2.307-2.307V105.839h68.228Zm0-30.708H67.809v-6.18a2.112,2.112,0,0,1,2.005-2.2H133.73a2.321,2.321,0,0,1,2.307,2.307Z" transform="translate(-45.497 -59.714)"/><path class="a" d="M15.417,60.711,9.732,41.923l5.686-1.7V29.783l-8.57,2.582L5.062,26.459A2.345,2.345,0,0,1,6.6,23.575L67.77,5.09a2.332,2.332,0,0,1,2.884,1.538l1.785,5.905L45.356,20.719H80.13l-4.7-15.546A7.328,7.328,0,0,0,66.314.283L5.172,18.8A7.328,7.328,0,0,0,.283,27.915L10.968,63.183a7.326,7.326,0,0,0,4.56,4.779,8.536,8.536,0,0,1-.082-1.181Z" transform="translate(0 0)"/><rect class="b" width="68.228" height="10.08" transform="translate(22.312 36.073)"/><g transform="translate(6.848 12.533)"><path class="c" d="M25,111.009l2.912,9.559,5.686-1.73V108.4Z" transform="translate(-25 -91.178)"/><path class="c" d="M192.383,45.7,165.3,53.885h29.527Z" transform="translate(-126.764 -45.7)"/></g></g></svg>