<svg xmlns="http://www.w3.org/2000/svg" width="77.29" height="62.052" viewBox="0 0 77.29 62.052"><defs><style>.a{fill:#fff;}.b{fill:#004b9b;}.c{fill:#e61b72;}.d{fill:#29235c;}</style></defs><g transform="translate(0.046)"><path class="a" d="M177.273,17.525A8.763,8.763,0,1,0,168.5,8.773h0A8.786,8.786,0,0,0,177.273,17.525Z" transform="translate(-133.673)"/><path class="a" d="M4.37,105.581l12.911,2.11a5.852,5.852,0,0,0,.848.062,5.276,5.276,0,0,0,4.283-2.214l4.014-5.649,5.4,4.676,1.076,7.366a5.251,5.251,0,0,0,10.449-.766,4.1,4.1,0,0,0-.062-.724l-1.345-9.311a5.288,5.288,0,0,0-1.759-3.207l-8.421-7.3,1.717-4.3,1.945,2.814a5.269,5.269,0,0,0,3.766,2.235l5.959.6a4.672,4.672,0,0,0,.538.021,5.248,5.248,0,0,0,.538-10.47h0l-3.538-.352L36.565,72.33a.363.363,0,0,0-.083-.1l-.062-.083-.124-.166-.041-.062a4.4,4.4,0,0,0-.621-.621l-.021-.021a2.2,2.2,0,0,0-.228-.186h0c-.083-.062-.145-.1-.228-.166h-.021c-.083-.041-.166-.1-.248-.145h0a5.464,5.464,0,0,0-.786-.372l-.062-.021c-.062-.021-.145-.041-.207-.062l-.083-.021a.6.6,0,0,0-.186-.041.421.421,0,0,1-.1-.021L33.3,70.2l-.1-.021c-.083-.021-.166-.021-.248-.041h-.021l-11.566-1.51a5.242,5.242,0,0,0-4.614,1.717l-5.856,6.6a5.255,5.255,0,0,0,7.863,6.973l4.014-4.531,2.069.269L20.84,89.587l-5.111,7.2L6.067,95.215a5.252,5.252,0,1,0-1.7,10.366Z" transform="translate(0 -54.391)"/><path class="b" d="M322.5,235.139h8.773V220.8H322.5Z" transform="translate(-255.809 -175.114)"/><path class="c" d="M263.394,171.842a2.508,2.508,0,1,0-2.193,4.511l.124.062a2.9,2.9,0,0,0,.828.228.076.076,0,0,1,.062.021h4.862a3.1,3.1,0,0,1,1.242-2.193l-4.924-2.628Z" transform="translate(-206.076 -136.088)"/><path class="b" d="M263.773,220.8H255v14.339h8.773Z" transform="translate(-202.275 -175.114)"/><path class="c" d="M300.3,217.77h4.014V198.9H300.3v18.87Z" transform="translate(-238.202 -157.746)"/><path class="d" d="M322.5,198.9v3.931h10.552V198.9H322.5Z" transform="translate(-255.809 -157.746)"/><path class="d" d="M256.952,202.831V198.9H246.4v3.931h10.552Z" transform="translate(-195.454 -157.746)"/><path class="c" d="M302.621,187.445h.207a2.532,2.532,0,0,0-5.028,0Z" transform="translate(-236.219 -146.891)"/><path class="c" d="M324.5,176.683c.021,0,.041-.021.062-.021a2.354,2.354,0,0,0,.828-.228,2.508,2.508,0,0,0-.166-4.635,2.582,2.582,0,0,0-1.924.062l-4.8,2.545a3.172,3.172,0,0,1,1.324,2.255Z" transform="translate(-252.636 -136.129)"/></g></svg>