<svg xmlns="http://www.w3.org/2000/svg" width="86.802" height="84.071" viewBox="0 0 86.802 84.071"><defs><style>.a{fill:#fff;}.b{fill:#009cde;}</style></defs><rect class="a" width="47.904" height="4.281" transform="translate(0 7.824)"/><rect class="a" width="15.906" height="4.281" transform="translate(70.896 7.824)"/><path class="b" d="M128.265,0a9.965,9.965,0,1,0,9.965,9.965h0A9.946,9.946,0,0,0,128.265,0Zm0,15.611a5.665,5.665,0,1,1,5.647-5.683h0A5.631,5.631,0,0,1,128.265,15.611Z" transform="translate(-74.641)"/><rect class="a" width="47.904" height="4.281" transform="translate(0 71.966)"/><rect class="a" width="15.906" height="4.281" transform="translate(70.896 71.966)"/><path class="b" d="M128.265,173.8a9.965,9.965,0,1,0,9.965,9.965h0A9.946,9.946,0,0,0,128.265,173.8Zm0,15.611a5.665,5.665,0,1,1,5.647-5.683h0A5.608,5.608,0,0,1,128.265,189.411Z" transform="translate(-74.641 -109.658)"/><rect class="a" width="22.992" height="4.281" transform="translate(0 39.821)"/><rect class="a" width="40.744" height="4.281" transform="translate(46.021 39.821)"/><path class="b" d="M60.765,86.8a9.965,9.965,0,1,0,9.965,9.965A9.97,9.97,0,0,0,60.765,86.8Zm0,15.611a5.665,5.665,0,1,1,5.647-5.683h0A5.655,5.655,0,0,1,60.765,102.411Z" transform="translate(-32.052 -54.766)"/></svg>