<svg xmlns="http://www.w3.org/2000/svg" width="117.613" height="73.546" viewBox="0 0 117.613 73.546"><defs><style>.a{fill:#fff;}.b{fill:#e61b72;}.c{fill:#941b80;}.d{fill:#f2bbaf;}</style></defs><path class="a" d="M275.451,0H245.1V1.925h28.967v8.9a4.1,4.1,0,0,0,4.091,4.091h8.874V71.591H245.1v1.955h43.887V13.536Zm.572,10.829V3.309l9.656,9.656h-7.52a2.125,2.125,0,0,1-2.136-2.136Z" transform="translate(-171.374)"/><path class="a" d="M265.607,45.555v4.452h-4.452V45.555h4.452m1.925-1.955H259.2v8.332h8.332V43.6Z" transform="translate(-181.232 -30.485)"/><path class="a" d="M265.607,83.025v4.452h-4.452V83.025h4.452m1.925-1.925H259.2v8.332h8.332V81.1Z" transform="translate(-181.232 -56.705)"/><path class="a" d="M265.607,120.425v4.452h-4.452v-4.452h4.452m1.925-1.925H259.2v8.362h8.332V118.5Z" transform="translate(-181.232 -82.855)"/><path class="a" d="M265.607,157.825v4.452h-4.452v-4.452h4.452m1.925-1.925H259.2v8.332h8.332V155.9Z" transform="translate(-181.232 -109.005)"/><path class="a" d="M265.607,195.225v4.452h-4.452v-4.452h4.452m1.925-1.925H259.2v8.332h8.332V193.3Z" transform="translate(-181.232 -135.155)"/><rect class="a" width="11.069" height="2.677" transform="translate(89.368 13.115)"/><rect class="a" width="15.852" height="2.677" transform="translate(89.368 24.365)"/><rect class="a" width="7.46" height="2.677" transform="translate(89.368 30.05)"/><rect class="a" width="12.664" height="2.677" transform="translate(89.368 35.705)"/><rect class="a" width="22.259" height="2.677" transform="translate(89.368 41.3)"/><rect class="a" width="15.431" height="2.677" transform="translate(89.368 46.925)"/><rect class="a" width="19.943" height="2.677" transform="translate(89.368 52.52)"/><rect class="a" width="7.701" height="2.677" transform="translate(89.368 58.145)"/><rect class="a" width="16.003" height="2.677" transform="translate(89.368 63.74)"/><rect class="a" width="22.5" height="2.677" transform="translate(89.368 18.8)"/><path class="a" d="M67.74,28.223H45.21V18.748A2.953,2.953,0,0,0,42.263,15.8h-10.8a2.953,2.953,0,0,0-2.948,2.948v9.475H5.986A5.982,5.982,0,0,0,0,34.209V73.825A5.982,5.982,0,0,0,5.986,79.81H67.71A5.982,5.982,0,0,0,73.7,73.825V34.209A5.938,5.938,0,0,0,67.74,28.223ZM30.471,18.748a1,1,0,0,1,.993-.993h10.8a1,1,0,0,1,.993.993h0v16.3a1,1,0,0,1-.993.993h-10.8a1,1,0,0,1-.993-.993v-16.3Zm41.3,55.077a4.044,4.044,0,0,1-4.061,4.061H5.986a4.063,4.063,0,0,1-4.061-4.061V34.209a4.063,4.063,0,0,1,4.061-4.061h22.53v4.873a2.953,2.953,0,0,0,2.948,2.948h10.8a2.953,2.953,0,0,0,2.948-2.948V30.148H67.74A4.063,4.063,0,0,1,71.8,34.209Z" transform="translate(0 -11.047)"/><path class="a" d="M112.222,39.444a4.422,4.422,0,1,0-4.422-4.422A4.429,4.429,0,0,0,112.222,39.444Zm0-6.918a2.5,2.5,0,1,1-2.5,2.5h0a2.53,2.53,0,0,1,2.5-2.5Z" transform="translate(-75.374 -21.395)"/><path class="b" d="M41.756,149.8H32.371a8,8,0,0,0-7.971,7.971v7.851h1.925v-7.851a6.034,6.034,0,0,1,6.016-6.016h9.415a6.034,6.034,0,0,1,6.016,6.016v7.851H49.7v-7.851A7.94,7.94,0,0,0,41.756,149.8Z" transform="translate(-17.06 -104.74)"/><rect class="c" width="1.955" height="6.648" transform="translate(12.724 54.204)"/><rect class="c" width="1.925" height="6.648" transform="translate(25.358 54.204)"/><path class="d" d="M50.558,96.5a6.858,6.858,0,1,0,6.858,6.858h0A6.875,6.875,0,0,0,50.558,96.5Zm0,11.791a4.933,4.933,0,1,1,4.933-4.933A4.936,4.936,0,0,1,50.558,108.291Z" transform="translate(-30.555 -67.473)"/><rect class="a" width="29.358" height="1.925" transform="translate(37.029 33.449)"/><rect class="a" width="10.979" height="1.925" transform="translate(37.029 38.503)"/><rect class="a" width="23.071" height="1.925" transform="translate(37.029 43.556)"/><rect class="a" width="17.266" height="1.925" transform="translate(37.029 48.64)"/><rect class="a" width="12.543" height="1.925" transform="translate(53.843 59.89)"/></svg>