<svg xmlns="http://www.w3.org/2000/svg" width="109.957" height="110.052" viewBox="0 0 109.957 110.052"><defs><style>.a{fill:#fff;}.b{fill:#009cde;}</style></defs><g transform="translate(0.105)"><path class="a" d="M112.367,119.109a6.877,6.877,0,0,0-12.3,3.075,6.9,6.9,0,0,0,1.122,4.88l-16.154,18.2a1.711,1.711,0,0,0,.146,2.44h0a1.629,1.629,0,0,0,1.122.439,1.574,1.574,0,0,0,1.269-.586l16.154-18.2a8.308,8.308,0,0,0,2.2.732,6.539,6.539,0,0,0,.976.049,6.843,6.843,0,0,0,6.784-5.954A7.047,7.047,0,0,0,112.367,119.109Zm-6,7.565a3.425,3.425,0,0,1,.488-6.833,1.66,1.66,0,0,1,.488.049,3.43,3.43,0,0,1,1.562,6.149,3.4,3.4,0,0,1-2.538.634Z" transform="translate(-43.363 -59.569)"/><path class="a" d="M115.041,63.59a1.719,1.719,0,0,0-.39,3.416h.342a29.258,29.258,0,1,1-11.957,55.978,1.737,1.737,0,0,0-1.415,3.172h0a32.708,32.708,0,1,0,26.988-59.589A30.773,30.773,0,0,0,115.041,63.59Z" transform="translate(-51.552 -32.551)"/><path class="a" d="M81.563,35.5A46.051,46.051,0,0,0,48.279,49.555a1.731,1.731,0,1,0,2.245,2.635c.1-.049.146-.146.244-.244A42.722,42.722,0,1,1,39.348,73.81a1.77,1.77,0,0,0-1.562-1.855,1.692,1.692,0,0,0-1.757,1.22,47.192,47.192,0,0,0-.83,8.687A46.363,46.363,0,1,0,81.563,35.5Z" transform="translate(-18.075 -18.174)"/><path class="a" d="M42.477,89.452a2.472,2.472,0,0,0,.634.1,1.817,1.817,0,0,0,1.611-1.074,40.59,40.59,0,0,1,3.66-7.272,1.782,1.782,0,0,0-.537-2.391,1.746,1.746,0,0,0-2.391.537,43.651,43.651,0,0,0-3.9,7.857,1.7,1.7,0,0,0,.927,2.245Z" transform="translate(-21.252 -40.21)"/><path class="a" d="M201.054,45.371l-7.76-6.735a1.656,1.656,0,0,0-2.391.146.048.048,0,0,1-.049.049,1.755,1.755,0,0,0,.146,2.44h0l7.809,6.735a1.857,1.857,0,0,0,.83.39,1.733,1.733,0,0,0,1.415-3.026Z" transform="translate(-97.546 -19.554)"/><path class="a" d="M124.36,0H105.473A5.207,5.207,0,0,0,100.3,5.173V8.638a5.134,5.134,0,0,0,5.173,5.124H124.36a5.166,5.166,0,0,0,5.173-5.124V5.222A5.218,5.218,0,0,0,124.36,0Zm1.708,8.589A1.729,1.729,0,0,1,124.36,10.3H105.473a1.7,1.7,0,0,1-1.708-1.708h0V5.173a1.729,1.729,0,0,1,1.708-1.708H124.36a1.729,1.729,0,0,1,1.708,1.708Z" transform="translate(-51.404)"/><path class="b" d="M49.775,65.206A1.729,1.729,0,0,0,48.067,63.5H1.7a1.711,1.711,0,0,0-.2,3.416H48.067A1.7,1.7,0,0,0,49.775,65.206Z" transform="translate(0 -32.507)"/><path class="b" d="M65.856,95.1H19.443a1.725,1.725,0,0,0,0,3.416H65.856a1.725,1.725,0,0,0,.488-3.416Z" transform="translate(-9.248 -48.688)"/></g></svg>