<svg xmlns="http://www.w3.org/2000/svg" width="107.585" height="79.396" viewBox="0 0 107.585 79.396"><defs><style>.a{fill:#009cde;}.b{fill:#fff;}</style></defs><g transform="translate(0.1 -0.025)"><path class="a" d="M203.246,2.427,201.4.584a1.923,1.923,0,0,0-2.72,2.72l1.842,1.842a48.978,48.978,0,0,1,0,69.262c-.57.57-1.184,1.14-1.755,1.667a1.91,1.91,0,0,0,1.316,3.334,1.911,1.911,0,0,0,1.272-.483A52.737,52.737,0,0,0,205.132,4.4C204.518,3.742,203.86,3.085,203.246,2.427Z" transform="translate(-111.275 0)"/><path class="a" d="M188.457,53.182a39.355,39.355,0,0,0-11.624-29.038l-1.36-1.36a1.923,1.923,0,1,0-2.72,2.72l1.36,1.36a35.873,35.873,0,0,1,0,50.707c-.439.439-.877.833-1.316,1.228a1.925,1.925,0,1,0,2.588,2.851h0a39.662,39.662,0,0,0,13.072-28.468Z" transform="translate(-96.705 -12.462)"/><path class="a" d="M17.314,78.926a1.881,1.881,0,0,0,2.676-.132h0a1.881,1.881,0,0,0-.132-2.676h0A49.026,49.026,0,0,1,16.437,6.9c.526-.614,1.1-1.184,1.667-1.755L19.946,3.3a1.923,1.923,0,1,0-2.72-2.72h0L15.384,2.427A52.737,52.737,0,0,0,15.34,77.04C16,77.7,16.656,78.312,17.314,78.926Z" transform="translate(0 0)"/><path class="a" d="M51.389,25.4a1.923,1.923,0,0,0-2.72-2.72l-1.36,1.36A39.632,39.632,0,0,0,47.266,80.1c.483.483.965.965,1.491,1.4a1.925,1.925,0,0,0,2.588-2.851A35.865,35.865,0,0,1,48.8,27.992c.395-.439.833-.877,1.228-1.316Z" transform="translate(-20.083 -12.406)"/><path class="b" d="M98,60.494a8.9,8.9,0,1,1-8.9,8.9,8.911,8.911,0,0,1,8.9-8.9ZM79.4,69.442A18.642,18.642,0,1,0,98.042,50.8h0A18.627,18.627,0,0,0,79.4,69.442Z" transform="translate(-44.628 -28.503)"/><path class="b" d="M115.83,91.361a4.43,4.43,0,1,0-4.43-4.43h0A4.418,4.418,0,0,0,115.83,91.361Z" transform="translate(-62.591 -46.298)"/></g></svg>