<svg xmlns="http://www.w3.org/2000/svg" width="124.461" height="136.116" viewBox="0 0 124.461 136.116"><defs><style>.a{fill:#e40428;}.b{fill:#f3bdb0;}.c{fill:#951b81;}.d{fill:#1d1d1b;}.e{fill:#fff;}</style></defs><g transform="matrix(-0.788, -0.616, 0.616, -0.788, 46.498, 136.116)"><path class="a" d="M0,79.158,21.8,0l6.406,53.442L0,81.648Z" transform="translate(13.144 25.66)"/><path class="b" d="M13.153,0,0,47.756,16.93,31.519Z" transform="translate(18.864 60.804)"/><path class="c" d="M0,25.214,25.214,0,28.24,25.214Z" transform="translate(17.233 88.274)"/><path class="d" d="M43.713,114.918H3.638L0,111.273V98.467L.13,97.5,26.984,0,34.1.532,47.329,110.84ZM7.282,107.632H39.6L29.078,19.8,7.282,98.962Z" transform="translate(5.862 5.856)"/><rect class="d" width="49.554" height="7.263" transform="translate(7.86 112.592) rotate(-45)"/><path class="e" d="M32.843,5.856l7.115.532L53.191,116.7l-3.616,4.077H9.5l-3.638-3.641v-12.81l.13-.965,26.854-97.5M33.285.012,27.207,4.3.34,101.8l-.155.764-.133.968L0,104.323v12.81l1.717,4.142,3.641,3.641L9.5,126.632H49.575l4.383-1.971,3.616-4.077L59.007,116,45.789,5.68,40.406.532,33.291,0Z"/></g></svg>