<svg xmlns="http://www.w3.org/2000/svg" width="58.17" height="86.075" viewBox="0 0 58.17 86.075"><defs><style>.a{fill:#f3bdb0;}.b{fill:#7a110f;}.c{fill:#951b81;}.d{fill:#1d1d1b;}.e{fill:#fff;}</style></defs><g transform="translate(23.031) rotate(17)"><path class="a" d="M16,51.093,0,32.489,6.4,0l9.717,49.567Z" transform="translate(12.537 15.656)"/><path class="b" d="M3.774,0,9.637,29.9,0,19.16Z" transform="translate(15.335 37.351)"/><path class="c" d="M0,15.329,3.018,0l14.3,16.633Z" transform="translate(8.421 53.721)"/><path class="d" d="M0,67.059,13.205,0h4.4L29.571,61.057l.036.6-.592,7.856-2.4,2.067L2.031,69.728Zm25.116-5.431L15.4,12.054,4.885,65.448l19.83,1.492Z" transform="translate(3.536 3.602)"/><rect class="d" width="4.468" height="30.485" transform="matrix(0.758, -0.652, 0.652, 0.758, 8.27, 50.045)"/><path class="e" d="M21.137,3.6,33.107,64.66l.036.6-.592,7.856-2.4,2.067L5.566,73.33,3.536,70.666,16.741,3.606h4.4m0-3.6h-4.4l-3.536,2.9L0,69.965l.668,2.877L2.7,75.507,5.3,76.923l24.583,1.852,2.621-.862,2.4-2.067,1.245-2.461.592-7.858V65.04l-.036-.6-.061-.478L24.675,2.912,21.139,0Z" transform="translate(0 0)"/></g></svg>