<svg xmlns="http://www.w3.org/2000/svg" width="131.298" height="138.153" viewBox="0 0 131.298 138.153"><defs><style>.a{fill:#f3bdb0;}.b{fill:#7a110f;}.c{fill:#951b81;}.d{fill:#1d1d1b;}.e{fill:#fff;}</style></defs><g transform="translate(85.448) rotate(41)"><path class="a" d="M26.455,84.476,0,53.716,10.578,0,26.644,81.953Z" transform="translate(20.729 25.886)"/><path class="b" d="M6.239,0l9.694,49.443L0,31.679Z" transform="translate(25.354 61.755)"/><path class="c" d="M0,25.345,4.99,0,28.639,27.5Z" transform="translate(13.923 88.821)"/><path class="d" d="M0,110.875,21.833,0H29.1L48.893,100.951l.06.991-.979,12.989L44,118.348,3.357,115.286Zm41.527-8.98L25.461,19.93,8.077,108.21l32.786,2.467Z" transform="translate(5.846 5.956)"/><rect class="d" width="7.388" height="50.403" transform="matrix(0.758, -0.652, 0.652, 0.758, 13.674, 82.744)"/><path class="e" d="M34.948,5.959,54.739,106.907l.06.991-.979,12.989L49.849,124.3,9.2,121.242l-3.357-4.405L27.679,5.963h7.268m0-5.959H27.679L21.833,4.8,0,115.679l1.1,4.757,3.354,4.405,4.307,2.341,40.646,3.061,4.333-1.425,3.971-3.417,2.058-4.068.979-12.992v-.805l-.06-.991-.1-.79L40.8,4.814,34.951,0Z" transform="translate(0 0)"/></g></svg>