<svg xmlns="http://www.w3.org/2000/svg" width="46.038" height="86.573" viewBox="0 0 46.038 86.573"><defs><style>.a{fill:#e40428;}.b{fill:#f3bdb0;}.c{fill:#951b81;}.d{fill:#1d1d1b;}.e{fill:#fff;}</style></defs><g transform="translate(46.038 83.182) rotate(175)"><path class="a" d="M0,52.2,14.374,0,18.6,35.239,0,53.838Z" transform="translate(8.667 16.92)"/><path class="b" d="M8.673,0,0,31.49,11.164,20.783Z" transform="translate(12.439 40.094)"/><path class="c" d="M0,16.626,16.626,0l1.995,16.626Z" transform="translate(11.364 58.207)"/><path class="d" d="M28.824,75.775H2.4L0,73.373V64.928l.086-.636L17.793,0l4.691.351,8.724,72.736ZM4.8,70.972H26.109L19.174,13.059,4.8,65.254Z" transform="translate(3.865 3.861)"/><rect class="d" width="32.675" height="4.789" transform="translate(5.183 74.242) rotate(-45)"/><path class="e" d="M21.656,3.861l4.691.351,8.726,72.736-2.384,2.688H6.264l-2.4-2.4V68.789l.086-.636L21.658,3.861m.29-3.853L17.94,2.835.224,67.127l-.1.5-.088.638L0,68.789v8.447l1.132,2.731,2.4,2.4L6.264,83.5H32.689l2.89-1.3,2.384-2.688.944-3.023L30.193,3.745,26.643.351,21.952,0Z"/></g></svg>